# xmcd
#
# Track frame offsets: 
#        150
#        4287
#        14392
#        30145
#        45700
#        68917
#        82705
#        94875
#        107655
#        122905
#        136015
#        162045
#        171270
#        186700
#        203295
#        211745
#        225822
#        238462
#        256580
#        271587
#        288802
#        309282
#
# Disc length: 4285 seconds
#
# Revision: 2
# Processed by: cddbd v1.4PL0 Copyright (c) Steve Scherf et al.
# Submitted via: ExactAudioCopy v0.95a1
#
DISCID=0e10bb16
DTITLE=Blue Sky Boys - In Concert, 1964
DYEAR=1964
DGENRE=Country
TTITLE0=Are You From Dixie
TTITLE1=Quit That Ticklin' Me
TTITLE2=I'm Just Here To Get My Baby Out Of Jail
TTITLE3=Worried Man Blues
TTITLE4=After The Ball
TTITLE5=Behind These Prison Walls Of Love
TTITLE6=The Last Letter
TTITLE7=The Fox
TTITLE8=The Sweetest Gift
TTITLE9=Only One Step More
TTITLE10=Uncle Josh Comedy Skit
TTITLE11=Don't Trade
TTITLE12=Kentucky
TTITLE13=If I Could Hear My Mother Pray Again
TTITLE14=Sweetheart Mountain Rose
TTITLE15=It Was Midnight On The Stormy Deep
TTITLE16=Beautiful
TTITLE17=In The Hills Of Roane County
TTITLE18=I'm Saved
TTITLE19=Whispering Hope
TTITLE20=The Butcher's Boy
TTITLE21=Are You From Dixie
EXTD=Rounder CD-11536-(1989]\nRecorded October 17, 1964 at U. of Illin
EXTD=ois, Champaign, Ill.
EXTT0=
EXTT1=
EXTT2=
EXTT3=
EXTT4=
EXTT5=
EXTT6=
EXTT7=
EXTT8=
EXTT9=
EXTT10=
EXTT11=
EXTT12=
EXTT13=
EXTT14=
EXTT15=
EXTT16=
EXTT17=
EXTT18=
EXTT19=
EXTT20=
EXTT21=
PLAYORDER=
